<svg width="200" height="200" viewBox="0 0 200 200" fill="none" xmlns="http://www.w3.org/2000/svg">
<path d="M0 0H200V200H0V0Z" fill="#FAFAFA"/>
<path d="M26.05 15H173.95C180.049 15 185 19.951 185 26.05V173.95C185 180.049 180.049 185 173.95 185H26.05C19.951 185 15 180.049 15 173.95V26.05C15 19.951 19.951 15 26.05 15Z" stroke="#A2A4AB" stroke-width="3" stroke-miterlimit="2" stroke-linejoin="round" stroke-dasharray="10 4"/>
<path d="M100.5 88.797C103.218 88.797 105.422 86.5933 105.422 83.875C105.422 81.1567 103.218 78.953 100.5 78.953C97.7817 78.953 95.578 81.1567 95.578 83.875C95.578 86.5933 97.7817 88.797 100.5 88.797Z" fill="#A2A4AB"/>
<path d="M114.875 69.5H108L105.5 67H95.5L93 69.5H86.125C85.2962 69.5 84.5013 69.8292 83.9153 70.4153C83.3292 71.0013 83 71.7962 83 72.625V93.875C83 94.7038 83.3292 95.4987 83.9153 96.0847C84.5013 96.6708 85.2962 97 86.125 97H114.875C115.704 97 116.499 96.6708 117.085 96.0847C117.671 95.4987 118 94.7038 118 93.875V72.625C118 71.7962 117.671 71.0013 117.085 70.4153C116.499 69.8292 115.704 69.5 114.875 69.5ZM100.5 92.625C99.3508 92.625 98.213 92.3986 97.1513 91.9588C96.0896 91.5191 95.125 90.8744 94.3125 90.0618C93.4999 89.2492 92.8554 88.2845 92.4158 87.2228C91.9761 86.1611 91.7499 85.0232 91.75 83.874C91.75 82.7248 91.9764 81.587 92.4162 80.5253C92.8559 79.4636 93.5006 78.499 94.3132 77.6865C95.1258 76.8739 96.0905 76.2294 97.1522 75.7898C98.2139 75.3501 99.3518 75.1239 100.501 75.124C101.65 75.124 102.788 75.3504 103.85 75.7902C104.911 76.2299 105.876 76.8746 106.689 77.6872C107.501 78.4998 108.146 79.4645 108.585 80.5262C109.025 81.5879 109.251 82.7258 109.251 83.875C109.251 85.0242 109.025 86.162 108.585 87.2237C108.145 88.2854 107.5 89.25 106.688 90.0625C105.875 90.8751 104.91 91.5196 103.849 91.9592C102.787 92.3989 101.649 92.6251 100.5 92.625Z" fill="#A2A4AB"/>
<path d="M77.4316 122.264C77.321 123.794 76.7546 124.998 75.7324 125.877C74.7168 126.756 73.3757 127.195 71.709 127.195C69.8861 127.195 68.4505 126.583 67.4023 125.359C66.3607 124.129 65.8398 122.443 65.8398 120.301V119.432C65.8398 118.064 66.0807 116.86 66.5625 115.818C67.0443 114.777 67.7311 113.979 68.623 113.426C69.5215 112.866 70.5632 112.586 71.748 112.586C73.3887 112.586 74.7103 113.025 75.7129 113.904C76.7155 114.783 77.2949 116.017 77.4512 117.605H74.5215C74.4499 116.688 74.1927 116.023 73.75 115.613C73.3138 115.197 72.6465 114.988 71.748 114.988C70.7715 114.988 70.0391 115.34 69.5508 116.043C69.069 116.74 68.8216 117.824 68.8086 119.295V120.369C68.8086 121.906 69.0397 123.029 69.502 123.738C69.9707 124.448 70.7064 124.803 71.709 124.803C72.6139 124.803 73.2878 124.598 73.7305 124.188C74.1797 123.771 74.4368 123.13 74.502 122.264H77.4316ZM85.293 127C85.1628 126.746 85.0684 126.43 85.0098 126.053C84.3262 126.814 83.4375 127.195 82.3438 127.195C81.3086 127.195 80.4492 126.896 79.7656 126.297C79.0885 125.698 78.75 124.943 78.75 124.031C78.75 122.911 79.1634 122.052 79.9902 121.453C80.8236 120.854 82.0247 120.551 83.5938 120.545H84.8926V119.939C84.8926 119.451 84.7656 119.061 84.5117 118.768C84.2643 118.475 83.8704 118.328 83.3301 118.328C82.8548 118.328 82.4805 118.442 82.207 118.67C81.9401 118.898 81.8066 119.21 81.8066 119.607H78.9844C78.9844 118.995 79.1732 118.429 79.5508 117.908C79.9284 117.387 80.4622 116.98 81.1523 116.688C81.8424 116.388 82.6172 116.238 83.4766 116.238C84.7786 116.238 85.8105 116.567 86.5723 117.225C87.3405 117.876 87.7246 118.794 87.7246 119.979V124.559C87.7311 125.561 87.8711 126.32 88.1445 126.834V127H85.293ZM82.959 125.037C83.3757 125.037 83.7598 124.946 84.1113 124.764C84.4629 124.575 84.7233 124.324 84.8926 124.012V122.195H83.8379C82.4251 122.195 81.6732 122.684 81.582 123.66L81.5723 123.826C81.5723 124.178 81.696 124.467 81.9434 124.695C82.1908 124.923 82.5293 125.037 82.959 125.037ZM92.5391 116.434L92.627 117.615C93.3757 116.697 94.388 116.238 95.6641 116.238C97.0247 116.238 97.959 116.775 98.4668 117.85C99.209 116.775 100.267 116.238 101.641 116.238C102.786 116.238 103.639 116.574 104.199 117.244C104.759 117.908 105.039 118.911 105.039 120.252V127H102.207V120.262C102.207 119.663 102.09 119.227 101.855 118.953C101.621 118.673 101.208 118.533 100.615 118.533C99.7689 118.533 99.1829 118.937 98.8574 119.744L98.8672 127H96.0449V120.271C96.0449 119.66 95.9245 119.217 95.6836 118.943C95.4427 118.67 95.0326 118.533 94.4531 118.533C93.6523 118.533 93.0729 118.865 92.7148 119.529V127H89.8926V116.434H92.5391ZM112.08 127.195C110.531 127.195 109.268 126.72 108.291 125.77C107.321 124.819 106.836 123.553 106.836 121.971V121.697C106.836 120.636 107.041 119.689 107.451 118.855C107.861 118.016 108.441 117.371 109.189 116.922C109.945 116.466 110.804 116.238 111.768 116.238C113.213 116.238 114.349 116.694 115.176 117.605C116.009 118.517 116.426 119.809 116.426 121.482V122.635H109.697C109.788 123.325 110.062 123.878 110.518 124.295C110.98 124.712 111.562 124.92 112.266 124.92C113.353 124.92 114.202 124.526 114.814 123.738L116.201 125.291C115.778 125.89 115.205 126.359 114.482 126.697C113.76 127.029 112.959 127.195 112.08 127.195ZM111.758 118.523C111.198 118.523 110.742 118.712 110.391 119.09C110.046 119.467 109.824 120.008 109.727 120.711H113.652V120.486C113.639 119.861 113.47 119.38 113.145 119.041C112.819 118.696 112.357 118.523 111.758 118.523ZM123.975 119.08C123.59 119.028 123.252 119.002 122.959 119.002C121.891 119.002 121.191 119.363 120.859 120.086V127H118.037V116.434H120.703L120.781 117.693C121.348 116.723 122.132 116.238 123.135 116.238C123.447 116.238 123.74 116.281 124.014 116.365L123.975 119.08ZM131.172 127C131.042 126.746 130.947 126.43 130.889 126.053C130.205 126.814 129.316 127.195 128.223 127.195C127.188 127.195 126.328 126.896 125.645 126.297C124.967 125.698 124.629 124.943 124.629 124.031C124.629 122.911 125.042 122.052 125.869 121.453C126.702 120.854 127.904 120.551 129.473 120.545H130.771V119.939C130.771 119.451 130.645 119.061 130.391 118.768C130.143 118.475 129.749 118.328 129.209 118.328C128.734 118.328 128.359 118.442 128.086 118.67C127.819 118.898 127.686 119.21 127.686 119.607H124.863C124.863 118.995 125.052 118.429 125.43 117.908C125.807 117.387 126.341 116.98 127.031 116.688C127.721 116.388 128.496 116.238 129.355 116.238C130.658 116.238 131.689 116.567 132.451 117.225C133.219 117.876 133.604 118.794 133.604 119.979V124.559C133.61 125.561 133.75 126.32 134.023 126.834V127H131.172ZM128.838 125.037C129.255 125.037 129.639 124.946 129.99 124.764C130.342 124.575 130.602 124.324 130.771 124.012V122.195H129.717C128.304 122.195 127.552 122.684 127.461 123.66L127.451 123.826C127.451 124.178 127.575 124.467 127.822 124.695C128.07 124.923 128.408 125.037 128.838 125.037Z" fill="#A2A4AB"/>
</svg>
