<svg xmlns="http://www.w3.org/2000/svg" style="isolation:isolate" width="200" height="200"><defs><clipPath id="a"><path d="M0 0h200v200H0z"/></clipPath></defs><g clip-path="url(#a)"><path d="M0 0h200v200H0V0z" fill="#FAFAFA"/><path d="M26.05 15h147.9c6.099 0 11.05 4.951 11.05 11.05v147.9c0 6.099-4.951 11.05-11.05 11.05H26.05C19.951 185 15 180.049 15 173.95V26.05C15 19.951 19.951 15 26.05 15z" fill="none" vector-effect="non-scaling-stroke" stroke-width="3" stroke-dasharray="10,4,0,0" stroke="#A2A4AB" stroke-linejoin="round" stroke-miterlimit="2"/><clipPath id="b"><path d="M0 0h200v200H0V0z" fill="#FFF"/></clipPath><g fill="#A2A4AB" clip-path="url(#b)"><circle vector-effect="non-scaling-stroke" cx="100" cy="101.875" r="4.922"/><path d="M114.375 87.5H107.5L105 85H95l-2.5 2.5h-6.875a3.125 3.125 0 0 0-3.125 3.125v21.25A3.125 3.125 0 0 0 85.625 115h28.75a3.125 3.125 0 0 0 3.125-3.125v-21.25a3.125 3.125 0 0 0-3.125-3.125zM100 110.625a8.75 8.75 0 0 1-8.75-8.751 8.75 8.75 0 0 1 8.751-8.75 8.75 8.75 0 0 1 8.75 8.751 8.75 8.75 0 0 1-8.751 8.75z"/></g><path d="M0 0h200v200H0V0z" fill="none"/></g></svg>