<svg width="200" height="200" viewBox="0 0 200 200" fill="none" xmlns="http://www.w3.org/2000/svg">
<path d="M0 0H200V200H0V0Z" fill="#FAFAFA"/>
<path d="M26.05 15H173.95C180.049 15 185 19.951 185 26.05V173.95C185 180.049 180.049 185 173.95 185H26.05C19.951 185 15 180.049 15 173.95V26.05C15 19.951 19.951 15 26.05 15Z" stroke="#A2A4AB" stroke-width="3" stroke-miterlimit="2" stroke-linejoin="round" stroke-dasharray="10 5"/>
<path d="M100.252 68V100.504V68ZM116.504 84.252H84H116.504Z" fill="black"/>
<path d="M116.504 84.252H84M100.252 68V100.504V68Z" stroke="#A2A4AB" stroke-width="3" stroke-miterlimit="3" stroke-linecap="round" stroke-linejoin="round"/>
<path d="M80.5195 126.203C79.9922 126.835 79.2467 127.326 78.2832 127.678C77.3197 128.023 76.252 128.195 75.0801 128.195C73.8496 128.195 72.7689 127.928 71.8379 127.395C70.9134 126.854 70.1973 126.073 69.6895 125.051C69.1882 124.029 68.931 122.827 68.918 121.447V120.48C68.918 119.061 69.1556 117.834 69.6309 116.799C70.1126 115.757 70.8027 114.963 71.7012 114.416C72.6061 113.863 73.6641 113.586 74.875 113.586C76.5612 113.586 77.8796 113.99 78.8301 114.797C79.7806 115.598 80.3438 116.766 80.5195 118.303H77.668C77.5378 117.489 77.248 116.893 76.7988 116.516C76.3561 116.138 75.7441 115.949 74.9629 115.949C73.9668 115.949 73.2083 116.324 72.6875 117.072C72.1667 117.821 71.903 118.934 71.8965 120.412V121.32C71.8965 122.811 72.1797 123.938 72.7461 124.699C73.3125 125.461 74.1426 125.842 75.2363 125.842C76.3366 125.842 77.1211 125.607 77.5898 125.139V122.688H74.9238V120.529H80.5195V126.203ZM88.8398 128C88.7096 127.746 88.6152 127.43 88.5566 127.053C87.873 127.814 86.9844 128.195 85.8906 128.195C84.8555 128.195 83.9961 127.896 83.3125 127.297C82.6354 126.698 82.2969 125.943 82.2969 125.031C82.2969 123.911 82.7103 123.052 83.5371 122.453C84.3704 121.854 85.5716 121.551 87.1406 121.545H88.4395V120.939C88.4395 120.451 88.3125 120.061 88.0586 119.768C87.8112 119.475 87.4173 119.328 86.877 119.328C86.4017 119.328 86.0273 119.442 85.7539 119.67C85.487 119.898 85.3535 120.21 85.3535 120.607H82.5312C82.5312 119.995 82.7201 119.429 83.0977 118.908C83.4753 118.387 84.0091 117.98 84.6992 117.688C85.3893 117.388 86.1641 117.238 87.0234 117.238C88.3255 117.238 89.3574 117.567 90.1191 118.225C90.8874 118.876 91.2715 119.794 91.2715 120.979V125.559C91.278 126.561 91.418 127.32 91.6914 127.834V128H88.8398ZM86.5059 126.037C86.9225 126.037 87.3066 125.946 87.6582 125.764C88.0098 125.575 88.2702 125.324 88.4395 125.012V123.195H87.3848C85.972 123.195 85.2201 123.684 85.1289 124.66L85.1191 124.826C85.1191 125.178 85.2428 125.467 85.4902 125.695C85.7376 125.923 86.0762 126.037 86.5059 126.037ZM96.418 128H93.5859V113H96.418V128ZM101.73 128H98.8984V113H101.73V128ZM108.928 128.195C107.378 128.195 106.115 127.72 105.139 126.77C104.169 125.819 103.684 124.553 103.684 122.971V122.697C103.684 121.636 103.889 120.689 104.299 119.855C104.709 119.016 105.288 118.371 106.037 117.922C106.792 117.466 107.652 117.238 108.615 117.238C110.061 117.238 111.197 117.694 112.023 118.605C112.857 119.517 113.273 120.809 113.273 122.482V123.635H106.545C106.636 124.325 106.91 124.878 107.365 125.295C107.827 125.712 108.41 125.92 109.113 125.92C110.201 125.92 111.05 125.526 111.662 124.738L113.049 126.291C112.626 126.89 112.053 127.359 111.33 127.697C110.607 128.029 109.807 128.195 108.928 128.195ZM108.605 119.523C108.046 119.523 107.59 119.712 107.238 120.09C106.893 120.467 106.672 121.008 106.574 121.711H110.5V121.486C110.487 120.861 110.318 120.38 109.992 120.041C109.667 119.696 109.204 119.523 108.605 119.523ZM120.822 120.08C120.438 120.028 120.1 120.002 119.807 120.002C118.739 120.002 118.039 120.363 117.707 121.086V128H114.885V117.434H117.551L117.629 118.693C118.195 117.723 118.98 117.238 119.982 117.238C120.295 117.238 120.588 117.281 120.861 117.365L120.822 120.08ZM126.311 124.006L128.264 117.434H131.291L127.043 129.641L126.809 130.197C126.177 131.577 125.135 132.268 123.684 132.268C123.273 132.268 122.857 132.206 122.434 132.082V129.943L122.863 129.953C123.397 129.953 123.794 129.872 124.055 129.709C124.322 129.546 124.53 129.276 124.68 128.898L125.012 128.029L121.311 117.434H124.348L126.311 124.006Z" fill="#A2A4AB"/>
</svg>
